<?xml version="1.0" standalone="no"?>
<!DOCTYPE svg PUBLIC "-//W3C//DTD SVG 20010904//EN"
 "http://www.w3.org/TR/2001/REC-SVG-20010904/DTD/svg10.dtd">
<svg version="1.0" xmlns="http://www.w3.org/2000/svg"
 width="512.000000pt" height="512.000000pt" viewBox="0 0 512.000000 512.000000"
 preserveAspectRatio="xMidYMid meet">

<g transform="translate(0.000000,512.000000) scale(0.100000,-0.100000)"
fill="#000000" stroke="none">
<path d="M2560 3667 l0 -126 45 -5 c25 -3 66 -8 93 -12 385 -45 733 -369 813
-759 10 -49 19 -114 19 -142 l0 -53 132 0 131 0 -6 93 c-11 165 -74 367 -162
517 -204 349 -578 585 -962 607 l-103 6 0 -126z"/>
<path d="M4029 3298 c72 -144 116 -272 148 -434 26 -128 26 -133 30 -733 l5
-604 409 409 c225 225 408 412 407 416 -3 7 -1049 1058 -1053 1058 -1 0 23
-51 54 -112z"/>
<path d="M2560 3213 l0 -129 83 -15 c112 -22 186 -59 268 -137 89 -83 146
-192 156 -294 l6 -68 134 0 134 0 -7 63 c-8 76 -47 213 -76 270 -124 245 -357
405 -630 433 l-68 7 0 -130z"/>
<path d="M2315 3301 c-257 -92 -428 -274 -513 -546 -14 -43 -17 -163 -22 -848
l-5 -797 -75 46 c-41 26 -102 67 -135 92 -33 25 218 -234 557 -574 l618 -619
425 425 425 425 -57 5 -58 5 0 137 0 137 -40 -25 c-352 -217 -762 -296 -1165
-223 -58 10 -132 27 -165 37 l-60 18 -3 487 c-1 279 2 487 7 487 5 0 14 -7 22
-16 26 -32 166 -105 254 -134 270 -86 557 -20 766 177 108 102 197 253 224
381 l7 32 -134 0 -133 -1 -30 -66 c-34 -77 -116 -171 -191 -219 -156 -100
-370 -104 -533 -11 -69 38 -158 128 -194 195 -33 61 -67 188 -67 252 0 68 35
193 71 257 57 99 185 207 272 228 l27 7 0 134 c0 154 3 150 -95 115z"/>
<path d="M2463 2842 c-214 -76 -270 -339 -106 -499 110 -107 301 -102 411 10
112 115 113 303 1 415 -79 80 -204 110 -306 74z"/>
</g>
</svg>
