<?xml version="1.0" standalone="no"?>
<!DOCTYPE svg PUBLIC "-//W3C//DTD SVG 20010904//EN"
 "http://www.w3.org/TR/2001/REC-SVG-20010904/DTD/svg10.dtd">
<svg version="1.0" xmlns="http://www.w3.org/2000/svg"
 width="300.000000pt" height="300.000000pt" viewBox="0 0 300.000000 300.000000"
 preserveAspectRatio="xMidYMid meet">
<metadata>
Created by potrace 1.16, written by Peter Selinger 2001-2019
</metadata>
<g transform="translate(0.000000,300.000000) scale(0.100000,-0.100000)"
fill="#000000" stroke="none">
<path d="M610 1535 l0 -525 270 0 270 0 0 525 0 525 -270 0 -270 0 0 -525z"/>
<path d="M2480 1510 l0 -430 255 0 255 0 0 430 0 430 -255 0 -255 0 0 -430z"/>
<path d="M257 1883 l253 -3 0 -460 0 -460 -245 0 -245 0 -3 458 -2 457 -3
-462 -2 -463 255 0 255 0 0 470 0 470 -257 -2 -258 -3 252 -2z"/>
</g>
</svg>
